<svg width="50" height="200" xmlns="http://www.w3.org/2000/svg">
 <!-- Created with Method Draw - http://github.com/duopixel/Method-Draw/ -->

 <g>
  <title>background</title>
  <rect x="-1" y="-1" width="52" height="202" id="canvas_background" fill="#fff"/>
  <g id="canvasGrid" display="none">
   <rect id="svg_3" width="100%" height="100%" x="0" y="0" stroke-width="0" fill="url(#gridpattern)"/>
  </g>
 </g>
 <g>
  <title>Layer 1</title>
  <rect fill="#fff" stroke="#000" stroke-width="0.5" x="10" y="10" width="29.5" height="29.5" id="svg_1" rx="6"/>
  <rect fill="#fff" stroke="#000" stroke-width="0.5" x="10" y="60.085178" width="13" height="29.5" id="svg_2" rx="3"/>
  <rect fill="#fff" stroke="#000" stroke-width="0.5" x="26.183996" y="60.085179" width="13" height="29.5" id="svg_6" rx="3"/>
  <rect fill="#fff" stroke="#000" stroke-width="0.5" x="10" y="110" width="13" height="29.5" id="svg_7" rx="3"/>
  <rect fill="#000000" stroke="#000" stroke-width="0.5" x="26.418797" y="109.572082" width="13" height="13" id="svg_8" rx="3"/>
  <rect fill="#000000" stroke="#000" stroke-width="0.5" x="26.490124" y="126.350596" width="13" height="13" id="svg_9" rx="3"/>
  <rect fill="#fff" stroke="#000" stroke-width="0.5" x="10" y="160" width="13" height="14" id="svg_10" rx="3"/>
  <rect fill="#000000" stroke="#000" stroke-width="0.5" x="10" y="177.897125" width="13" height="14" id="svg_11" rx="3"/>
  <rect fill="#000000" stroke="#000" stroke-width="0.5" x="26.424259" y="159.926552" width="13" height="14" id="svg_12" rx="3"/>
  <rect fill="#fff" stroke="#000" stroke-width="0.5" x="26.600006" y="177.918813" width="13" height="14" id="svg_13" rx="3"/>
 </g>
</svg>